<svg version="1.1" id="Layer_1" xmlns="http://www.w3.org/2000/svg" xmlns:xlink="http://www.w3.org/1999/xlink" x="0px" y="0px"
	 width="100%" viewBox="0 0 164 147" enable-background="new 0 0 164 147" xml:space="preserve">
<path fill="#010101" opacity="1.000000" stroke="none" 
	d="
M68.000000,148.000000 
	C45.683121,148.000000 23.366245,148.000000 1.049367,148.000000 
	C1.032911,147.849915 1.002039,147.699829 1.002032,147.549744 
	C0.999958,98.752388 1.000000,49.955036 1.000000,1.078841 
	C55.573727,1.078841 110.147606,1.078841 164.860748,1.078841 
	C164.860748,49.999748 164.860748,98.999809 164.860748,148.000000 
	C142.237244,148.000000 119.587280,148.000000 96.364777,147.541382 
	C95.792244,132.176819 95.792244,117.270866 95.792244,101.980865 
	C103.041435,101.980865 109.635643,101.980865 116.518486,101.980865 
	C117.657013,93.460289 118.749138,85.287025 119.904678,76.639130 
	C111.794510,76.639130 104.046974,76.639130 95.945496,76.639130 
	C95.945496,70.765297 95.652733,65.298576 96.011574,59.874969 
	C96.604561,50.912510 100.990356,46.740662 109.979073,46.207409 
	C113.562836,45.994808 117.169739,46.172466 120.715042,46.172466 
	C120.715042,38.567730 120.715042,31.811661 120.715042,23.827642 
	C112.098259,23.639818 103.602859,22.634514 95.288788,23.458626 
	C81.566650,24.818796 72.965164,33.148155 69.723747,46.417942 
	C68.439354,51.675983 68.462860,57.283546 68.180168,62.746937 
	C67.944633,67.299004 68.131897,71.872955 68.131897,76.813950 
	C60.265045,76.813950 53.177906,76.813950 46.185616,76.813950 
	C46.185616,85.451363 46.185616,93.680824 46.185616,102.260834 
	C53.606232,102.260834 60.697525,102.260834 67.786674,102.260834 
	C67.920044,103.086533 68.064148,103.561661 68.063744,104.036652 
	C68.051201,118.691109 68.024506,133.345551 68.000000,148.000000 
z"/>
<path fill="#FCFCFC" opacity="1.000000" stroke="none" 
	d="
M68.468658,148.000000 
	C68.024506,133.345551 68.051201,118.691109 68.063744,104.036652 
	C68.064148,103.561661 67.920044,103.086533 67.786674,102.260834 
	C60.697525,102.260834 53.606232,102.260834 46.185616,102.260834 
	C46.185616,93.680824 46.185616,85.451363 46.185616,76.813950 
	C53.177906,76.813950 60.265045,76.813950 68.131897,76.813950 
	C68.131897,71.872955 67.944633,67.299004 68.180168,62.746937 
	C68.462860,57.283546 68.439354,51.675983 69.723747,46.417942 
	C72.965164,33.148155 81.566650,24.818796 95.288788,23.458626 
	C103.602859,22.634514 112.098259,23.639818 120.715042,23.827642 
	C120.715042,31.811661 120.715042,38.567730 120.715042,46.172466 
	C117.169739,46.172466 113.562836,45.994808 109.979073,46.207409 
	C100.990356,46.740662 96.604561,50.912510 96.011574,59.874969 
	C95.652733,65.298576 95.945496,70.765297 95.945496,76.639130 
	C104.046974,76.639130 111.794510,76.639130 119.904678,76.639130 
	C118.749138,85.287025 117.657013,93.460289 116.518486,101.980865 
	C109.635643,101.980865 103.041435,101.980865 95.792244,101.980865 
	C95.792244,117.270866 95.792244,132.176819 95.896118,147.541382 
	C86.979103,148.000000 77.958214,148.000000 68.468658,148.000000 
z"/>
</svg>