<svg version="1.1" id="Layer_1" xmlns="http://www.w3.org/2000/svg" xmlns:xlink="http://www.w3.org/1999/xlink" x="0px" y="0px"
	 width="100%" viewBox="0 0 142 136" enable-background="new 0 0 142 136" xml:space="preserve">
<path fill="#EC199A" opacity="1.000000" stroke="none" 
	d="
M108.000000,1.000000 
	C113.022095,1.000000 118.044182,1.000000 123.609192,1.349952 
	C129.613007,12.287313 135.047516,22.888601 140.591400,33.432384 
	C140.980530,34.172466 142.178268,34.487381 143.000000,35.000000 
	C143.000000,41.354397 143.000000,47.708797 142.662262,54.447556 
	C137.950882,52.711895 134.056015,50.223534 133.647690,44.659695 
	C133.604355,44.069107 132.599396,43.549091 132.019867,42.583622 
	C130.964127,37.521908 131.587921,32.270634 127.118317,28.482241 
	C125.303284,19.838995 118.914162,16.157326 111.988235,12.609392 
	C110.634567,8.497142 109.317284,4.748571 108.000000,1.000000 
z"/>
<path fill="#ED1897" opacity="1.000000" stroke="none" 
	d="
M132.040543,42.996338 
	C132.599396,43.549091 133.604355,44.069107 133.647690,44.659695 
	C134.056015,50.223534 137.950882,52.711895 142.662262,54.915955 
	C143.000000,68.687561 143.000000,82.375122 142.673752,96.535202 
	C141.913116,97.008804 141.478745,97.009872 140.651764,96.927559 
	C137.833557,96.558578 135.407928,96.272980 132.983795,95.556763 
	C133.085052,91.092537 133.071228,87.052193 133.310043,83.026833 
	C133.713028,76.233994 136.132751,68.882561 134.276230,62.814934 
	C132.208984,56.058517 132.359222,49.634167 132.040543,42.996338 
M138.433975,82.496490 
	C138.765289,82.628906 139.096603,82.761322 139.427917,82.893738 
	C139.469833,82.744537 139.560089,82.469704 139.546600,82.464523 
	C139.215393,82.337112 138.873184,82.238297 138.433975,82.496490 
z"/>
<path fill="#FB523C" opacity="1.000000" stroke="none" 
	d="
M31.000000,137.000000 
	C28.299986,137.000000 25.599974,137.000000 22.421728,136.633240 
	C21.399466,134.905334 21.225847,133.140167 20.252264,132.247559 
	C13.054328,125.648376 8.275373,117.657539 5.295918,108.390503 
	C4.735311,106.646851 2.475639,105.449463 1.000000,104.000000 
	C1.000000,97.978844 1.000000,91.957695 1.351722,85.562996 
	C2.806172,87.028419 4.563340,88.762024 4.879820,90.727585 
	C5.612021,95.275047 7.663938,98.416061 12.007539,100.331429 
	C12.005707,101.107376 12.004188,101.550774 11.858173,102.213371 
	C12.144683,103.288223 12.575686,104.143860 13.257889,105.008621 
	C13.676491,105.025383 13.843893,105.033028 14.019476,105.352280 
	C14.028676,106.079460 14.029695,106.495049 14.167866,107.113922 
	C14.508234,107.574707 14.737832,107.806015 15.085095,108.351608 
	C16.784094,111.450798 18.391808,114.209526 20.115772,117.302139 
	C20.828316,119.412674 21.424606,121.189331 22.017105,123.377174 
	C21.560444,127.409470 23.035284,129.880844 26.097050,131.901031 
	C28.016979,133.167816 29.384583,135.271698 31.000000,137.000000 
z"/>
<path fill="#FA3454" opacity="1.000000" stroke="none" 
	d="
M1.000000,13.000000 
	C1.000000,9.078017 1.000000,5.156034 1.000000,1.000000 
	C4.678595,1.000000 8.360122,1.000000 12.557114,1.367354 
	C16.525497,9.096616 18.936832,16.719912 18.721794,25.162939 
	C18.302280,25.855167 18.061354,26.341940 17.544868,26.986683 
	C16.805838,28.055567 16.342365,28.966482 15.692240,30.090109 
	C15.006620,30.865191 14.507656,31.427563 13.701475,31.851723 
	C10.479529,26.722853 7.644625,21.682709 4.600717,16.772120 
	C3.704498,15.326294 2.216690,14.247175 1.000000,13.000000 
z"/>
<path fill="#F74D44" opacity="1.000000" stroke="none" 
	d="
M12.007851,99.998871 
	C7.663938,98.416061 5.612021,95.275047 4.879820,90.727585 
	C4.563340,88.762024 2.806172,87.028419 1.351722,85.094727 
	C1.000000,74.645775 1.000000,64.291542 1.347866,53.567810 
	C3.102197,57.080845 4.948853,60.869595 5.801290,64.870186 
	C6.817325,69.638565 9.593858,72.645599 13.508614,75.486298 
	C13.535464,80.964737 13.535668,85.978889 13.407335,91.350830 
	C12.855149,94.472038 12.431499,97.235458 12.007851,99.998871 
z"/>
<path fill="#E719A3" opacity="1.000000" stroke="none" 
	d="
M143.000000,34.531342 
	C142.178268,34.487381 140.980530,34.172466 140.591400,33.432384 
	C135.047516,22.888601 129.613007,12.287313 124.076050,1.349952 
	C130.280579,1.000000 136.561157,1.000000 143.000000,1.000000 
	C143.000000,12.020485 143.000000,23.041584 143.000000,34.531342 
z"/>
<path fill="#F54F53" opacity="1.000000" stroke="none" 
	d="
M13.481966,75.022011 
	C9.593858,72.645599 6.817325,69.638565 5.801290,64.870186 
	C4.948853,60.869595 3.102197,57.080845 1.347866,53.099152 
	C1.000000,47.311958 1.000000,41.623920 1.309232,35.624413 
	C3.456897,39.914352 5.188777,44.562832 7.189855,49.092388 
	C7.919193,50.743286 9.289306,52.111107 10.762483,54.157269 
	C12.011173,47.182720 13.013498,41.584240 14.210705,35.981968 
	C14.405584,35.978180 14.795418,35.978184 14.826773,36.403278 
	C14.399407,49.559586 13.940686,62.290798 13.481966,75.022011 
z"/>
<path fill="#F93E4C" opacity="1.000000" stroke="none" 
	d="
M14.015825,35.985756 
	C13.013498,41.584240 12.011173,47.182720 10.762483,54.157269 
	C9.289306,52.111107 7.919193,50.743286 7.189855,49.092388 
	C5.188777,44.562832 3.456897,39.914352 1.309232,35.156471 
	C1.000000,27.979052 1.000000,20.958103 1.000000,13.468577 
	C2.216690,14.247175 3.704498,15.326294 4.600717,16.772120 
	C7.644625,21.682709 10.479529,26.722853 13.699106,32.251965 
	C14.007911,33.855530 14.011868,34.920643 14.015825,35.985756 
z"/>
<path fill="#F81B73" opacity="1.000000" stroke="none" 
	d="
M143.000000,127.000000 
	C143.000000,129.500000 142.659683,132.059586 143.084427,134.485214 
	C143.640244,137.659225 141.654388,136.951920 139.422180,136.643951 
	C137.734024,131.166016 134.469086,129.423615 129.438431,129.964783 
	C122.884842,130.669769 116.694778,129.326660 110.952637,125.692093 
	C110.918564,125.165291 110.896881,124.955208 111.087341,124.544357 
	C111.855659,124.189117 112.411819,124.034637 113.067894,123.936249 
	C113.167809,123.992340 113.442352,123.883438 113.442352,123.883438 
	C113.442352,123.883438 113.453308,123.564186 113.548828,123.542618 
	C113.644341,123.521049 113.691727,123.711067 113.920135,123.604927 
	C114.418388,123.300446 114.688225,123.102097 114.972260,122.947479 
	C114.986450,122.991219 114.934090,122.915459 115.215790,122.841782 
	C115.954834,122.422409 116.412178,122.076706 116.890579,121.795990 
	C116.911636,121.860970 116.780830,121.900398 116.973541,121.743042 
	C117.418915,121.369743 117.623344,121.115097 117.912048,120.557068 
	C118.683205,119.841385 119.321854,119.390381 120.349716,118.961349 
	C128.159286,121.655548 135.579636,124.327774 143.000000,127.000000 
z"/>
<path fill="#F51786" opacity="1.000000" stroke="none" 
	d="
M132.982315,95.987381 
	C135.407928,96.272980 137.833557,96.558578 140.746185,97.206543 
	C141.822128,98.045937 142.411057,98.522972 143.000000,99.000000 
	C143.000000,104.688042 143.000000,110.376083 142.609039,116.448189 
	C137.112625,115.748032 131.473419,115.954323 127.973427,110.537033 
	C127.801682,109.317810 127.646873,108.509140 127.459488,107.679230 
	C127.426918,107.658005 127.461639,107.588417 127.812714,107.501923 
	C129.769974,103.606079 131.376144,99.796730 132.982315,95.987381 
z"/>
<path fill="#FC5936" opacity="1.000000" stroke="none" 
	d="
M1.000000,104.466858 
	C2.475639,105.449463 4.735311,106.646851 5.295918,108.390503 
	C8.275373,117.657539 13.054328,125.648376 20.252264,132.247559 
	C21.225847,133.140167 21.399466,134.905334 21.971748,136.633240 
	C18.969406,137.000000 15.938813,137.000000 12.424494,136.623230 
	C9.840959,129.789124 6.720585,124.019035 1.000000,120.000000 
	C1.000000,114.977905 1.000000,109.955818 1.000000,104.466858 
z"/>
<path fill="#FA1B6E" opacity="1.000000" stroke="none" 
	d="
M33.000000,1.000000 
	C41.354233,1.000000 49.708466,1.000000 58.543823,1.405799 
	C59.969971,8.702137 59.967739,8.662339 53.175980,9.043028 
	C51.756451,9.122594 50.360088,9.615360 48.497345,9.937235 
	C44.357338,9.986600 40.673042,10.016442 36.807770,9.751427 
	C35.417862,6.637712 34.208931,3.818856 33.000000,1.000000 
z"/>
<path fill="#FB2560" opacity="1.000000" stroke="none" 
	d="
M32.532394,1.000000 
	C34.208931,3.818856 35.417862,6.637712 36.551231,9.980330 
	C31.717806,12.866199 26.959938,15.228306 22.792105,17.297482 
	C20.429522,11.628524 18.214762,6.314262 16.000000,1.000000 
	C21.354929,1.000000 26.709860,1.000000 32.532394,1.000000 
z"/>
<path fill="#EF1D7B" opacity="1.000000" stroke="none" 
	d="
M48.953049,9.917713 
	C50.360088,9.615360 51.756451,9.122594 53.175980,9.043028 
	C59.967739,8.662339 59.969971,8.702137 59.012474,1.405799 
	C65.021156,1.000000 71.042305,1.000000 77.560547,1.359907 
	C79.400352,4.432206 80.743073,7.144599 81.693497,9.902248 
	C80.518417,10.006355 79.735626,10.065207 78.494110,10.092144 
	C73.389618,10.311376 68.743866,10.562522 63.632477,10.898434 
	C58.438915,10.981512 53.710983,10.979826 48.979439,10.712923 
	C48.968235,10.271043 48.960644,10.094378 48.953049,9.917713 
z"/>
<path fill="#F6187B" opacity="1.000000" stroke="none" 
	d="
M127.990364,110.947578 
	C131.473419,115.954323 137.112625,115.748032 142.609039,116.916122 
	C143.000000,120.030594 143.000000,123.061188 143.000000,126.545891 
	C135.579636,124.327774 128.159286,121.655548 120.438324,118.672333 
	C121.257271,117.212715 122.376808,116.064079 123.769249,114.750732 
	C124.341034,114.044937 124.639915,113.503845 124.966301,112.981071 
	C124.993797,112.999390 124.944168,112.962440 125.130783,112.780861 
	C125.448380,112.280159 125.579346,111.961037 125.692947,111.685829 
	C125.675575,111.729744 125.590691,111.688316 125.904648,111.650238 
	C126.809189,111.390640 127.399780,111.169113 127.990364,110.947578 
z"/>
<path fill="#FA1D6B" opacity="1.000000" stroke="none" 
	d="
M110.965019,126.008812 
	C116.694778,129.326660 122.884842,130.669769 129.438431,129.964783 
	C134.469086,129.423615 137.734024,131.166016 138.922180,136.643951 
	C132.645599,137.000000 126.291206,137.000000 119.338112,136.691437 
	C114.493767,133.591049 110.248108,130.799240 106.189728,127.796051 
	C106.861534,127.012939 107.346046,126.441216 107.863396,125.852798 
	C107.896233,125.836098 107.937279,125.896812 108.314934,125.933899 
	C109.450066,125.983589 110.207542,125.996201 110.965019,126.008812 
z"/>
<path fill="#F32F61" opacity="1.000000" stroke="none" 
	d="
M107.830559,125.869492 
	C107.346046,126.441216 106.861534,127.012939 105.792473,127.880081 
	C102.068344,128.665207 98.928749,129.154907 95.159500,129.742828 
	C96.637375,132.535477 97.818687,134.767746 99.000000,137.000000 
	C95.969406,137.000000 92.938812,137.000000 89.338875,136.918808 
	C88.485115,136.733704 88.228607,136.787827 88.000000,137.000000 
	C87.555557,137.000000 87.111107,137.000000 86.191498,136.691086 
	C81.373970,132.731827 77.032104,129.080444 70.928482,128.788177 
	C70.953186,128.549698 70.978088,128.070847 71.441986,127.981056 
	C83.880783,127.217339 95.855667,126.543411 107.830559,125.869492 
z"/>
<path fill="#FA4D40" opacity="1.000000" stroke="none" 
	d="
M31.463184,137.000000 
	C29.384583,135.271698 28.016979,133.167816 26.097050,131.901031 
	C23.035284,129.880844 21.560444,127.409470 22.434477,123.383514 
	C24.516294,123.048973 26.176952,123.119293 27.998022,123.487732 
	C30.522997,125.481041 32.832573,128.507065 35.263027,128.607483 
	C41.188263,128.852280 42.547932,132.715042 44.000000,137.000000 
	C39.975456,137.000000 35.950912,137.000000 31.463184,137.000000 
z"/>
<path fill="#F31786" opacity="1.000000" stroke="none" 
	d="
M82.085793,9.856992 
	C80.743073,7.144599 79.400352,4.432206 78.028809,1.359907 
	C84.021156,1.000000 90.042305,1.000000 96.536026,1.414120 
	C97.332397,4.535240 97.656189,7.242239 97.515434,9.957636 
	C92.062515,9.929687 87.074158,9.893339 82.085793,9.856992 
z"/>
<path fill="#FB2263" opacity="1.000000" stroke="none" 
	d="
M99.468399,137.000000 
	C97.818687,134.767746 96.637375,132.535477 95.159500,129.742828 
	C98.928749,129.154907 102.068344,128.665207 105.605194,128.091476 
	C110.248108,130.799240 114.493767,133.591049 118.869705,136.691437 
	C112.645599,137.000000 106.291206,137.000000 99.468399,137.000000 
z"/>
<path fill="#F13764" opacity="1.000000" stroke="none" 
	d="
M48.497345,9.937236 
	C48.960644,10.094378 48.968235,10.271043 48.586060,10.823199 
	C36.602463,11.847090 26.513760,15.617522 19.135967,25.116438 
	C19.058739,25.061550 18.900381,24.957483 18.900381,24.957483 
	C18.936832,16.719912 16.525497,9.096616 13.036289,1.367354 
	C13.750000,1.000000 14.500000,1.000000 15.625000,1.000000 
	C18.214762,6.314262 20.429522,11.628524 22.792105,17.297482 
	C26.959938,15.228306 31.717806,12.866199 36.732208,10.275188 
	C40.673042,10.016442 44.357338,9.986600 48.497345,9.937236 
z"/>
<path fill="#FA3E4D" opacity="1.000000" stroke="none" 
	d="
M66.000000,137.000000 
	C60.645069,137.000000 55.290142,137.000000 49.386879,136.649490 
	C47.991165,134.258408 47.143784,132.217834 45.844761,129.089676 
	C52.190235,129.089676 57.568851,129.089676 63.034222,129.436111 
	C64.080650,132.188370 65.040321,134.594177 66.000000,137.000000 
z"/>
<path fill="#F63556" opacity="1.000000" stroke="none" 
	d="
M66.468399,137.000000 
	C65.040321,134.594177 64.080650,132.188370 63.481453,129.412079 
	C66.195877,129.036621 68.549828,129.031647 70.903778,129.026657 
	C77.032104,129.080444 81.373970,132.731827 85.858170,136.691086 
	C79.645599,137.000000 73.291206,137.000000 66.468399,137.000000 
z"/>
<path fill="#FC6031" opacity="1.000000" stroke="none" 
	d="
M1.000000,120.470459 
	C6.720585,124.019035 9.840959,129.789124 11.970383,136.623230 
	C8.392121,137.000000 4.784243,137.000000 1.000000,137.000000 
	C1.000000,131.647827 1.000000,126.294373 1.000000,120.470459 
z"/>
<path fill="#EF4D4F" opacity="1.000000" stroke="none" 
	d="
M70.928482,128.788177 
	C68.549828,129.031647 66.195877,129.036621 63.394699,129.065643 
	C57.568851,129.089676 52.190235,129.089676 45.844761,129.089676 
	C47.143784,132.217834 47.991165,134.258408 48.919273,136.649490 
	C47.611111,137.000000 46.222221,137.000000 44.416664,137.000000 
	C42.547932,132.715042 41.188263,128.852280 35.263027,128.607483 
	C32.832573,128.507065 30.522997,125.481041 28.066891,123.405014 
	C27.975344,123.024155 28.113813,122.863495 28.496094,122.851234 
	C35.775528,124.382309 42.607002,126.455788 49.588207,127.320663 
	C56.640907,128.194382 63.842003,127.870232 70.978088,128.070847 
	C70.978088,128.070847 70.953186,128.549698 70.928482,128.788177 
z"/>
<path fill="#EA1F8F" opacity="1.000000" stroke="none" 
	d="
M97.979988,9.949238 
	C97.656189,7.242239 97.332397,4.535240 97.004303,1.414120 
	C100.361290,1.000000 103.722572,1.000000 107.541931,1.000000 
	C109.317284,4.748571 110.634567,8.497142 111.588020,12.646252 
	C110.438187,13.201787 109.652184,13.356784 108.851364,13.480802 
	C108.836540,13.449822 108.885941,13.401984 108.672371,13.091263 
	C104.965866,11.836774 101.472923,10.893005 97.979988,9.949238 
z"/>
<path fill="#E52591" opacity="1.000000" stroke="none" 
	d="
M143.000000,98.666672 
	C142.411057,98.522972 141.822128,98.045937 141.138763,97.289925 
	C141.478745,97.009872 141.913116,97.008804 142.673752,97.003860 
	C143.000000,97.444443 143.000000,97.888893 143.000000,98.666672 
z"/>
<path fill="#F63556" opacity="1.000000" stroke="none" 
	d="
M88.250000,137.000000 
	C88.228607,136.787827 88.485115,136.733704 88.884766,136.918808 
	C89.000000,137.000000 88.500000,137.000000 88.250000,137.000000 
z"/>
<path fill="#E52591" opacity="1.000000" stroke="none" 
	d="
M132.983795,95.556763 
	C131.376144,99.796730 129.769974,103.606079 127.867416,107.103195 
	C131.383652,80.895012 132.350906,55.031502 126.806259,29.145565 
	C126.925224,29.047573 127.163612,28.852152 127.163612,28.852152 
	C131.587921,32.270634 130.964127,37.521908 132.019867,42.583618 
	C132.359222,49.634167 132.208984,56.058517 134.276230,62.814934 
	C136.132751,68.882561 133.713028,76.233994 133.310043,83.026833 
	C133.071228,87.052193 133.085052,91.092537 132.983795,95.556763 
z"/>
<path fill="#E52591" opacity="1.000000" stroke="none" 
	d="
M108.866180,13.511782 
	C109.652184,13.356784 110.438187,13.201787 111.624405,13.009932 
	C118.914162,16.157326 125.303284,19.838995 127.118317,28.482241 
	C127.163612,28.852152 126.925224,29.047573 126.557251,28.918528 
	C122.356804,21.495049 116.337944,16.679708 108.866180,13.511782 
z"/>
<path fill="#E52591" opacity="1.000000" stroke="none" 
	d="
M138.483459,82.315430 
	C138.873184,82.238297 139.215393,82.337112 139.546600,82.464523 
	C139.560089,82.469704 139.469833,82.744537 139.427917,82.893738 
	C139.096603,82.761322 138.765289,82.628906 138.483459,82.315430 
z"/>
<path fill="#E86159" opacity="1.000000" stroke="none" 
	d="
M19.999521,116.968246 
	C18.391808,114.209526 16.784094,111.450798 14.947477,108.149261 
	C14.515598,107.348495 14.286311,107.116562 14.030713,106.910629 
	C14.029695,106.495049 14.028676,106.079460 14.354084,105.305679 
	C14.904414,104.922646 15.128320,104.897820 15.582878,105.122787 
	C17.883118,109.251312 19.952703,113.130043 21.685049,117.013199 
	C20.898380,117.001152 20.448950,116.984695 19.999521,116.968246 
z"/>
<path fill="#F54F53" opacity="1.000000" stroke="none" 
	d="
M15.352224,104.872993 
	C15.128320,104.897820 14.904414,104.922646 14.345902,104.994080 
	C13.843893,105.033028 13.676491,105.025383 13.233471,104.684830 
	C12.639458,103.566002 12.321064,102.780083 12.002668,101.994164 
	C12.004188,101.550774 12.005707,101.107376 12.007538,100.331429 
	C12.431499,97.235458 12.855149,94.472038 13.541731,91.778229 
	C14.320517,96.189560 14.836370,100.531273 15.352224,104.872993 
z"/>
<path fill="#EF4D4F" opacity="1.000000" stroke="none" 
	d="
M20.115772,117.302132 
	C20.448950,116.984695 20.898380,117.001152 21.973053,117.180702 
	C24.436804,119.183693 26.275309,121.023598 28.113813,122.863495 
	C28.113813,122.863495 27.975344,123.024155 27.906475,123.106880 
	C26.176952,123.119293 24.516294,123.048973 22.438267,122.972321 
	C21.424606,121.189331 20.828316,119.412674 20.115772,117.302132 
z"/>
<path fill="#F74D44" opacity="1.000000" stroke="none" 
	d="
M11.858174,102.213371 
	C12.321064,102.780083 12.639458,103.566002 12.982270,104.675713 
	C12.575686,104.143860 12.144683,103.288223 11.858174,102.213371 
z"/>
<path fill="#F74D44" opacity="1.000000" stroke="none" 
	d="
M14.167866,107.113922 
	C14.286311,107.116562 14.515598,107.348495 14.856192,107.808792 
	C14.737832,107.806015 14.508234,107.574707 14.167866,107.113922 
z"/>
<path fill="#F13764" opacity="1.000000" stroke="none" 
	d="
M14.210705,35.981968 
	C14.011868,34.920643 14.007911,33.855530 14.006323,32.390175 
	C14.507656,31.427563 15.006620,30.865191 15.873147,30.232319 
	C16.240709,30.161818 16.604427,30.443800 16.558861,30.805944 
	C15.940669,32.771454 15.368043,34.374821 14.795418,35.978184 
	C14.795418,35.978184 14.405584,35.978180 14.210705,35.981968 
z"/>
<path fill="#F13764" opacity="1.000000" stroke="none" 
	d="
M16.059803,30.019608 
	C16.342365,28.966482 16.805838,28.055567 17.630024,27.061546 
	C17.990742,26.978443 18.161318,27.127878 18.124212,27.435745 
	C17.592880,28.643673 17.098652,29.543736 16.604427,30.443800 
	C16.604427,30.443800 16.240709,30.161818 16.059803,30.019608 
z"/>
<path fill="#F13764" opacity="1.000000" stroke="none" 
	d="
M17.905586,26.903578 
	C18.061354,26.341940 18.302280,25.855167 18.721794,25.162939 
	C18.900381,24.957483 19.058739,25.061550 19.111637,25.407959 
	C18.830128,26.212204 18.495724,26.670042 18.161320,27.127880 
	C18.161318,27.127878 17.990742,26.978443 17.905586,26.903578 
z"/>
<path fill="#FDF3F7" opacity="1.000000" stroke="none" 
	d="
M18.124214,27.435745 
	C18.495724,26.670042 18.830128,26.212204 19.188864,25.462847 
	C26.513760,15.617522 36.602463,11.847090 48.589672,11.088415 
	C53.710983,10.979826 58.438915,10.981512 64.079353,10.993749 
	C69.652267,10.946186 74.312668,10.888074 79.435959,10.917074 
	C89.561218,11.803452 99.223579,12.602718 108.885941,13.401984 
	C108.885941,13.401984 108.836540,13.449822 108.851364,13.480803 
	C116.337944,16.679708 122.356804,21.495049 126.438293,29.016520 
	C132.350906,55.031502 131.383652,80.895012 127.516342,107.189682 
	C127.461639,107.588417 127.426918,107.658005 127.228973,107.897400 
	C126.550919,109.320641 126.070801,110.504478 125.590691,111.688316 
	C125.590691,111.688316 125.675575,111.729744 125.454308,111.826050 
	C125.136749,112.269058 125.040466,112.615753 124.944168,112.962440 
	C124.944168,112.962440 124.993797,112.999390 124.685486,113.126114 
	C124.083572,113.807045 123.789955,114.361252 123.496346,114.915451 
	C122.376808,116.064079 121.257271,117.212715 120.049118,118.650360 
	C119.321854,119.390381 118.683205,119.841385 117.648422,120.628036 
	C117.095146,121.275925 116.937988,121.588158 116.780830,121.900398 
	C116.780830,121.900398 116.911636,121.860970 116.583954,121.812309 
	C115.815536,122.147583 115.374817,122.531517 114.934090,122.915459 
	C114.934090,122.915459 114.986450,122.991219 114.681419,122.929474 
	C114.148163,123.148842 113.919945,123.429955 113.691727,123.711067 
	C113.691727,123.711067 113.644341,123.521049 113.381348,123.549004 
	C113.118347,123.576958 112.967979,123.880157 112.967979,123.880157 
	C112.411819,124.034637 111.855659,124.189117 110.756104,124.548370 
	C109.454231,125.134369 108.695755,125.515594 107.937279,125.896812 
	C107.937279,125.896812 107.896233,125.836098 107.863396,125.852791 
	C95.855667,126.543411 83.880783,127.217339 71.441986,127.981056 
	C63.842003,127.870232 56.640907,128.194382 49.588207,127.320663 
	C42.607002,126.455788 35.775528,124.382309 28.496094,122.851234 
	C26.275309,121.023598 24.436804,119.183693 22.310295,117.176285 
	C19.952703,113.130043 17.883118,109.251312 15.582878,105.122787 
	C14.836370,100.531273 14.320517,96.189560 13.670267,91.420441 
	C13.535668,85.978889 13.535464,80.964737 13.508613,75.486298 
	C13.940686,62.290798 14.399407,49.559586 14.826773,36.403278 
	C15.368043,34.374821 15.940669,32.771454 16.558861,30.805944 
	C17.098652,29.543736 17.592880,28.643673 18.124214,27.435745 
M109.089119,25.811569 
	C109.089119,25.811569 109.173325,25.821547 108.766380,25.271095 
	C107.866890,25.128910 106.967400,24.986727 105.872421,24.297657 
	C105.349411,24.159225 104.826393,24.020794 103.733566,23.254820 
	C100.323807,22.781033 96.916855,21.924282 93.503815,21.899323 
	C78.199059,21.787399 62.891212,21.816889 47.587921,22.035948 
	C44.703884,22.077232 41.835526,23.213816 38.228989,23.891272 
	C28.314953,27.541424 23.079184,37.210415 24.371288,49.168251 
	C24.439390,64.437119 23.934942,79.736176 24.737810,94.966309 
	C25.529009,109.975166 34.672497,117.282410 50.871174,116.959473 
	C65.262901,117.003929 79.665749,117.385475 94.040352,116.911087 
	C99.112671,116.743698 104.115936,114.483986 109.814728,113.021706 
	C112.254486,109.810341 114.694237,106.598984 117.676247,102.790833 
	C118.102890,101.196053 118.894035,99.602776 118.900612,98.006264 
	C118.979057,78.945244 119.212173,59.877522 118.775047,40.826008 
	C118.636169,34.772541 115.714882,29.324404 109.612602,25.803913 
	C109.612602,25.803913 109.155487,25.758793 109.089119,25.811569 
z"/>
<path fill="#F32F61" opacity="1.000000" stroke="none" 
	d="
M108.314934,125.933899 
	C108.695755,125.515594 109.454231,125.134369 110.543945,124.749130 
	C110.896881,124.955208 110.918564,125.165291 110.952637,125.692093 
	C110.207542,125.996201 109.450066,125.983589 108.314934,125.933899 
z"/>
<path fill="#F6187B" opacity="1.000000" stroke="none" 
	d="
M115.215790,122.841782 
	C115.374817,122.531517 115.815536,122.147583 116.562889,121.747330 
	C116.412178,122.076706 115.954834,122.422409 115.215790,122.841782 
z"/>
<path fill="#F6187B" opacity="1.000000" stroke="none" 
	d="
M113.067894,123.936249 
	C112.967979,123.880157 113.118347,123.576958 113.285828,123.570572 
	C113.453308,123.564186 113.442352,123.883438 113.442352,123.883438 
	C113.442352,123.883438 113.167809,123.992340 113.067894,123.936249 
z"/>
<path fill="#F6187B" opacity="1.000000" stroke="none" 
	d="
M113.920135,123.604927 
	C113.919945,123.429955 114.148163,123.148842 114.667221,122.885742 
	C114.688225,123.102097 114.418388,123.300446 113.920135,123.604927 
z"/>
<path fill="#F6187B" opacity="1.000000" stroke="none" 
	d="
M116.973541,121.743042 
	C116.937988,121.588158 117.095146,121.275925 117.515923,120.892715 
	C117.623344,121.115097 117.418915,121.369743 116.973541,121.743042 
z"/>
<path fill="#E52591" opacity="1.000000" stroke="none" 
	d="
M125.904648,111.650238 
	C126.070801,110.504478 126.550919,109.320641 127.261551,107.918633 
	C127.646873,108.509140 127.801682,109.317810 127.973427,110.537033 
	C127.399780,111.169113 126.809189,111.390640 125.904648,111.650238 
z"/>
<path fill="#E52591" opacity="1.000000" stroke="none" 
	d="
M108.672371,13.091263 
	C99.223579,12.602718 89.561218,11.803452 79.432220,10.740563 
	C78.965576,10.476941 78.952843,10.124058 78.952843,10.124058 
	C79.735626,10.065207 80.518417,10.006355 81.693497,9.902248 
	C87.074158,9.893339 92.062515,9.929687 97.515434,9.957636 
	C101.472923,10.893005 104.965866,11.836774 108.672371,13.091263 
z"/>
<path fill="#EA1F8F" opacity="1.000000" stroke="none" 
	d="
M78.494110,10.092144 
	C78.952843,10.124058 78.965576,10.476941 78.969322,10.653452 
	C74.312668,10.888074 69.652267,10.946186 64.544983,10.908983 
	C68.743866,10.562522 73.389618,10.311376 78.494110,10.092144 
z"/>
<path fill="#E52591" opacity="1.000000" stroke="none" 
	d="
M123.769249,114.750732 
	C123.789955,114.361252 124.083572,113.807045 124.657990,113.107803 
	C124.639915,113.503845 124.341034,114.044937 123.769249,114.750732 
z"/>
<path fill="#E52591" opacity="1.000000" stroke="none" 
	d="
M125.130791,112.780861 
	C125.040466,112.615753 125.136749,112.269058 125.471680,111.782135 
	C125.579346,111.961037 125.448380,112.280159 125.130791,112.780861 
z"/>
<path fill="#F01C82" opacity="1.000000" stroke="none" 
	d="
M117.133995,103.387619 
	C114.694237,106.598984 112.254486,109.810341 109.410942,112.976990 
	C109.007156,112.932274 108.853455,112.691101 108.986519,112.392456 
	C109.698181,111.285873 110.214645,110.423637 110.865425,109.678757 
	C115.242149,104.669235 115.138245,103.337357 110.305229,98.657387 
	C109.006615,97.399895 107.659683,95.958672 106.987656,94.332108 
	C105.070435,89.691704 101.630997,88.329224 97.137749,88.641205 
	C97.503693,87.155632 97.732071,85.997780 98.011566,84.484314 
	C102.373436,75.958229 103.130646,67.525482 99.975891,58.785378 
	C97.576225,52.137226 92.789833,47.456940 87.744621,43.276894 
	C90.770668,43.818653 93.380920,44.404160 96.423012,44.973602 
	C97.714729,44.875565 98.574608,44.793583 99.439301,44.738785 
	C99.444107,44.765968 99.497292,44.749260 99.666611,45.048176 
	C102.894882,45.557087 105.953835,45.767082 109.013992,46.444374 
	C109.021690,50.405941 108.651665,53.958157 109.177139,57.372559 
	C109.487930,59.391998 110.766533,62.160145 112.388367,62.911633 
	C117.227867,65.154045 118.166779,68.879700 118.014977,73.512901 
	C117.688759,83.470070 117.423943,93.429260 117.133995,103.387619 
z"/>
<path fill="#F4365C" opacity="1.000000" stroke="none" 
	d="
M24.932251,48.446594 
	C23.079184,37.210415 28.314953,27.541424 38.614117,23.970566 
	C38.999245,24.049860 39.062992,24.248285 38.871819,24.469385 
	C37.777718,25.467785 36.874783,26.245085 35.659317,27.135395 
	C34.709835,27.762915 34.026642,28.230003 33.443008,28.799179 
	C26.679543,35.395111 26.131207,40.135403 31.118675,47.929371 
	C31.730515,48.885506 32.408173,50.032574 32.421833,51.099270 
	C32.491875,56.569828 36.165379,58.099930 41.025002,59.315243 
	C42.738819,55.803360 44.387714,52.424515 46.344894,48.974579 
	C47.442379,48.603687 48.231579,48.303886 49.141148,48.361496 
	C42.685886,58.041393 40.188538,68.177856 43.192810,79.792587 
	C43.622524,80.876396 43.997089,81.568993 44.385117,82.253380 
	C44.398579,82.245178 44.430084,82.246185 44.296543,82.690735 
	C44.090740,83.435410 44.018482,83.735535 43.635353,84.183372 
	C42.489693,87.552055 40.097939,91.438766 41.133263,93.860100 
	C43.539471,99.487526 47.596725,104.409431 50.988903,109.614616 
	C52.342651,111.691902 53.707077,113.762222 54.642029,115.864632 
	C52.795620,115.958336 51.373829,116.023125 49.690048,115.874832 
	C45.107075,108.212929 40.305798,100.990532 36.646835,93.229599 
	C34.482731,88.639374 34.208801,83.175850 32.902664,78.152412 
	C32.511738,76.648903 31.581942,75.259140 30.759172,73.902054 
	C30.005512,72.658951 28.520372,71.625610 28.293753,70.335403 
	C27.017002,63.066578 26.022793,55.748127 24.932251,48.446594 
M35.609039,65.361877 
	C36.606716,66.422523 37.604393,67.483162 39.492695,69.490639 
	C39.492695,66.060143 39.492695,64.141899 39.492695,61.065041 
	C37.648567,62.807266 36.632511,63.767174 35.609039,65.361877 
z"/>
<path fill="#F34058" opacity="1.000000" stroke="none" 
	d="
M24.651770,48.807423 
	C26.022793,55.748127 27.017002,63.066578 28.293753,70.335403 
	C28.520372,71.625610 30.005512,72.658951 30.759172,73.902054 
	C31.581942,75.259140 32.511738,76.648903 32.902664,78.152412 
	C34.208801,83.175850 34.482731,88.639374 36.646835,93.229599 
	C40.305798,100.990532 45.107075,108.212929 49.692459,116.032417 
	C49.956863,116.403084 49.949989,116.720146 49.949989,116.720146 
	C34.672497,117.282410 25.529009,109.975166 24.737810,94.966309 
	C23.934942,79.736176 24.439390,64.437119 24.651770,48.807423 
z"/>
<path fill="#EB258C" opacity="1.000000" stroke="none" 
	d="
M117.405121,103.089226 
	C117.423943,93.429260 117.688759,83.470070 118.014977,73.512901 
	C118.166779,68.879700 117.227867,65.154045 112.388367,62.911633 
	C110.766533,62.160145 109.487930,59.391998 109.177139,57.372559 
	C108.651665,53.958157 109.021690,50.405941 109.202896,46.140114 
	C110.175667,42.372463 112.267906,38.926258 111.428818,36.489403 
	C110.270622,33.125790 106.901390,30.523508 104.330223,27.415041 
	C104.538033,27.241274 105.276962,26.623400 106.410339,26.001282 
	C107.594307,25.938540 108.383812,25.880043 109.173325,25.821545 
	C109.173325,25.821547 109.089119,25.811569 109.180420,25.899321 
	C109.271713,25.987072 109.564369,26.189461 109.564369,26.189461 
	C109.564369,26.189461 109.924263,26.141346 109.924263,26.141346 
	C115.714882,29.324404 118.636169,34.772541 118.775047,40.826008 
	C119.212173,59.877522 118.979057,78.945244 118.900612,98.006264 
	C118.894035,99.602776 118.102890,101.196053 117.405121,103.089226 
z"/>
<path fill="#E92184" opacity="1.000000" stroke="none" 
	d="
M106.015892,26.005526 
	C105.276962,26.623400 104.538033,27.241274 104.330223,27.415041 
	C106.901390,30.523508 110.270622,33.125790 111.428818,36.489403 
	C112.267906,38.926258 110.175667,42.372463 109.201691,45.672821 
	C105.953835,45.767082 102.894882,45.557087 100.053268,45.077888 
	C101.264786,44.861320 102.260834,44.981716 103.252815,44.954491 
	C106.923820,44.853748 109.737900,42.818439 109.620628,39.380436 
	C109.534332,36.850498 107.815498,33.214417 105.785385,32.243744 
	C103.808212,31.298389 99.532814,32.268112 98.068466,33.958252 
	C96.615677,35.635044 97.212204,39.266804 97.328888,42.023449 
	C97.367996,42.947552 98.695755,43.817116 99.434486,44.711605 
	C98.574608,44.793583 97.714729,44.875565 96.397903,44.607754 
	C95.168655,42.096840 93.151680,39.344009 93.847313,37.880737 
	C96.371582,32.570873 94.663368,27.936974 93.341537,23.183834 
	C97.270058,23.455923 100.786720,23.669142 104.303383,23.882359 
	C104.826393,24.020794 105.349411,24.159225 105.953354,24.861122 
	C106.028152,25.618235 106.022018,25.811880 106.015892,26.005526 
z"/>
<path fill="#E32F6E" opacity="1.000000" stroke="none" 
	d="
M50.410583,116.839813 
	C49.949989,116.720146 49.956863,116.403084 49.954449,116.245499 
	C51.373829,116.023125 52.795620,115.958336 55.069336,115.894730 
	C59.285118,115.598778 62.648979,115.301636 66.478958,115.007172 
	C72.297531,115.010757 77.649979,115.011665 83.469116,115.017273 
	C88.953270,115.001617 93.970749,114.981277 99.376022,114.938301 
	C102.793694,114.174149 105.823578,113.432625 108.853455,112.691101 
	C108.853455,112.691101 109.007156,112.932274 109.078949,113.055916 
	C104.115936,114.483986 99.112671,116.743698 94.040352,116.911087 
	C79.665749,117.385475 65.262901,117.003929 50.410583,116.839813 
z"/>
<path fill="#DA2E77" opacity="1.000000" stroke="none" 
	d="
M104.018478,23.568588 
	C100.786720,23.669142 97.270058,23.455923 92.880600,23.163380 
	C85.336342,23.104767 78.664886,23.125479 71.528320,23.116688 
	C66.372795,23.107777 61.682392,23.128368 56.539772,23.120270 
	C53.067451,23.145462 50.047337,23.199345 46.635643,23.292774 
	C43.850372,23.637644 41.456684,23.942965 39.062992,24.248285 
	C39.062992,24.248285 38.999245,24.049860 38.979591,23.947422 
	C41.835526,23.213816 44.703884,22.077232 47.587921,22.035948 
	C62.891212,21.816889 78.199059,21.787399 93.503815,21.899323 
	C96.916855,21.924282 100.323807,22.781033 104.018478,23.568588 
z"/>
<path fill="#DA2E77" opacity="1.000000" stroke="none" 
	d="
M106.410339,26.001282 
	C106.022018,25.811880 106.028152,25.618235 106.051094,25.134565 
	C106.967400,24.986727 107.866890,25.128910 108.969849,25.546320 
	C108.383812,25.880043 107.594307,25.938540 106.410339,26.001282 
z"/>
<path fill="#E92184" opacity="1.000000" stroke="none" 
	d="
M109.768433,25.972630 
	C109.924263,26.141346 109.564369,26.189461 109.564369,26.189461 
	C109.564369,26.189461 109.271713,25.987072 109.213600,25.872932 
	C109.155487,25.758793 109.612602,25.803913 109.768433,25.972630 
z"/>
<path fill="#FDF2F8" opacity="1.000000" stroke="none" 
	d="
M44.430084,82.246185 
	C44.430084,82.246185 44.398579,82.245178 44.367805,81.839508 
	C43.937241,80.756340 43.537449,80.078857 43.137661,79.401367 
	C40.188538,68.177856 42.685886,58.041393 49.326523,48.093040 
	C51.047600,46.516579 52.703671,45.565987 54.693985,44.515743 
	C57.719944,43.007633 60.411652,41.599182 63.060333,40.189621 
	C63.017307,40.188511 63.083981,40.242966 63.510910,40.301670 
	C71.428246,38.346279 78.600876,39.766922 85.752716,42.326214 
	C85.841370,42.282001 85.751854,42.105247 85.844498,42.415352 
	C86.334137,42.862980 86.731133,43.000496 87.135406,43.230812 
	C87.142685,43.323612 87.328827,43.320644 87.328827,43.320644 
	C92.789833,47.456940 97.576225,52.137226 99.975891,58.785378 
	C103.130646,67.525482 102.373436,75.958229 97.742371,84.664932 
	C96.562881,86.425430 95.703712,87.649681 94.891045,88.908463 
	C94.937546,88.943001 94.878159,88.843536 94.579315,88.966003 
	C93.164627,90.375229 92.048775,91.661995 90.957970,92.967987 
	C90.983025,92.987228 90.985992,92.924126 90.712036,92.982582 
	C90.223892,93.334068 90.009712,93.627098 89.844772,93.915154 
	C89.894020,93.910179 89.881332,93.812019 89.571838,93.877281 
	C88.452286,94.578003 87.642227,95.213455 86.866974,95.857468 
	C86.901779,95.866013 86.910774,95.794899 86.533066,95.842941 
	C81.168152,96.995583 76.212029,98.768105 71.184296,99.002144 
	C66.839783,99.204361 62.413883,97.658028 58.022583,96.923546 
	C58.021202,96.962433 58.098999,96.964363 58.009224,96.677505 
	C57.583569,96.285889 57.247684,96.181137 56.741234,96.021545 
	C56.570663,95.966705 56.212429,95.957901 56.111431,95.651764 
	C55.191200,94.732269 54.371964,94.118904 53.533649,93.461746 
	C53.514568,93.417953 53.422134,93.442123 53.279282,93.174881 
	C52.179035,92.179474 51.221642,91.451302 50.155708,90.858414 
	C50.047165,90.993690 50.277180,90.732933 50.198006,90.423889 
	C49.108089,89.047752 48.097355,87.980667 47.060108,86.933311 
	C47.033600,86.953049 47.093754,86.980438 47.074547,86.692055 
	C46.765686,86.179604 46.476028,85.955536 46.211853,85.774506 
	C46.237339,85.817551 46.320999,85.762703 46.277405,85.423805 
	C45.632565,84.138664 45.031326,83.192429 44.430084,82.246185 
M85.779037,82.849174 
	C96.541931,71.841919 89.997864,54.641712 78.642197,51.223553 
	C77.196808,50.853134 75.771469,50.316814 74.302765,50.139359 
	C65.136642,49.031857 56.492699,54.456684 53.552704,63.077808 
	C50.677238,71.509712 54.049828,81.194153 61.475075,85.827019 
	C69.375664,90.756477 78.582474,89.710663 85.779037,82.849174 
z"/>
<path fill="#F71777" opacity="1.000000" stroke="none" 
	d="
M108.986519,112.392456 
	C105.823578,113.432625 102.793694,114.174149 99.376862,114.542648 
	C98.334839,112.203606 98.248848,109.622910 96.916023,108.388985 
	C93.198380,104.947182 88.963997,102.063538 85.107559,98.700165 
	C85.824593,97.558838 86.367683,96.676872 86.910774,95.794899 
	C86.910774,95.794899 86.901779,95.866013 87.214653,95.872116 
	C88.312126,95.189484 89.096725,94.500748 89.881332,93.812019 
	C89.881332,93.812019 89.894020,93.910179 90.084503,93.801849 
	C90.511993,93.437057 90.748993,93.180588 90.985992,92.924118 
	C90.985992,92.924126 90.983025,92.987228 91.328964,92.964310 
	C92.742653,91.575432 93.810402,90.209488 94.878159,88.843536 
	C94.878159,88.843536 94.937546,88.943001 95.249359,88.943649 
	C96.040840,88.952499 96.520508,88.960709 97.000183,88.968918 
	C101.630997,88.329224 105.070435,89.691704 106.987656,94.332108 
	C107.659683,95.958672 109.006615,97.399895 110.305229,98.657387 
	C115.138245,103.337357 115.242149,104.669235 110.865425,109.678757 
	C110.214645,110.423637 109.698181,111.285873 108.986519,112.392456 
z"/>
<path fill="#F6187D" opacity="1.000000" stroke="none" 
	d="
M87.744621,43.276894 
	C87.328827,43.320644 87.142685,43.323612 86.915771,43.042572 
	C86.376526,42.542770 86.064194,42.324009 85.751854,42.105247 
	C85.751854,42.105247 85.841370,42.282001 85.706932,41.971649 
	C82.376144,40.421333 79.179794,39.181362 76.018906,37.561638 
	C75.845589,34.911156 75.983246,32.535931 75.338020,30.396851 
	C74.576813,27.873287 73.138298,25.554026 71.993431,23.146191 
	C78.664886,23.125479 85.336342,23.104767 92.468742,23.104509 
	C94.663368,27.936974 96.371582,32.570873 93.847313,37.880737 
	C93.151680,39.344009 95.168655,42.096840 95.966064,44.623817 
	C93.380920,44.404160 90.770668,43.818653 87.744621,43.276894 
z"/>
<path fill="#E23673" opacity="1.000000" stroke="none" 
	d="
M97.137749,88.641205 
	C96.520508,88.960709 96.040840,88.952499 95.202850,88.909119 
	C95.703712,87.649681 96.562881,86.425430 97.691254,85.020546 
	C97.732071,85.997780 97.503693,87.155632 97.137749,88.641205 
z"/>
<path fill="#FB295D" opacity="1.000000" stroke="none" 
	d="
M46.036606,49.045670 
	C44.387714,52.424515 42.738819,55.803360 41.025002,59.315243 
	C36.165379,58.099930 32.491875,56.569828 32.421833,51.099270 
	C32.408173,50.032574 31.730515,48.885506 31.118675,47.929371 
	C26.131207,40.135403 26.679543,35.395111 33.443008,28.799179 
	C34.026642,28.230003 34.709835,27.762915 35.608398,27.408340 
	C37.018127,30.421640 38.014587,33.348251 39.349167,36.111561 
	C41.459183,40.480469 43.795856,44.739906 46.036606,49.045670 
z"/>
<path fill="#FB2C5B" opacity="1.000000" stroke="none" 
	d="
M66.012840,115.004486 
	C62.648979,115.301636 59.285118,115.598778 55.493950,115.865814 
	C53.707077,113.762222 52.342651,111.691902 50.988903,109.614616 
	C47.596725,104.409431 43.539471,99.487526 41.133263,93.860100 
	C40.097939,91.438766 42.489693,87.552055 43.817352,84.426697 
	C44.980476,84.935776 45.650738,85.349236 46.320999,85.762703 
	C46.320999,85.762703 46.237339,85.817551 46.306717,86.020676 
	C46.615318,86.476006 46.854534,86.728226 47.093754,86.980438 
	C47.093754,86.980438 47.033600,86.953049 47.049431,87.299309 
	C48.135902,88.674690 49.206539,89.703812 50.277180,90.732933 
	C50.277180,90.732933 50.047165,90.993690 50.174332,91.215851 
	C51.341709,92.106041 52.381924,92.774078 53.422134,93.442123 
	C53.422134,93.442123 53.514568,93.417953 53.491821,93.790413 
	C53.984833,94.816879 54.500591,95.470886 55.015781,96.517036 
	C56.260471,99.446686 57.309792,102.106270 58.796799,104.493172 
	C61.041824,108.096825 63.592224,111.510223 66.012840,115.004486 
z"/>
<path fill="#F72465" opacity="1.000000" stroke="none" 
	d="
M46.344894,48.974579 
	C43.795856,44.739906 41.459183,40.480469 39.349167,36.111561 
	C38.014587,33.348251 37.018127,30.421640 35.920933,27.295328 
	C36.874783,26.245085 37.777718,25.467785 38.871819,24.469385 
	C41.456684,23.942965 43.850372,23.637644 46.630989,23.671612 
	C49.465187,30.879066 51.912460,37.747231 54.359737,44.615395 
	C52.703671,45.565987 51.047600,46.516579 49.206154,47.735626 
	C48.231579,48.303886 47.442379,48.603687 46.344894,48.974579 
z"/>
<path fill="#FB295D" opacity="1.000000" stroke="none" 
	d="
M35.612747,65.044479 
	C36.632511,63.767174 37.648567,62.807266 39.492695,61.065041 
	C39.492695,64.141899 39.492695,66.060143 39.492695,69.490639 
	C37.604393,67.483162 36.606716,66.422523 35.612747,65.044479 
z"/>
<path fill="#E23673" opacity="1.000000" stroke="none" 
	d="
M46.277405,85.423805 
	C45.650738,85.349236 44.980476,84.935776 44.128220,84.278984 
	C44.018482,83.735535 44.090740,83.435410 44.296543,82.690735 
	C45.031326,83.192429 45.632565,84.138664 46.277405,85.423805 
z"/>
<path fill="#E23673" opacity="1.000000" stroke="none" 
	d="
M43.192810,79.792587 
	C43.537449,80.078857 43.937241,80.756340 44.354343,81.847702 
	C43.997089,81.568993 43.622524,80.876396 43.192810,79.792587 
z"/>
<path fill="#FCECF8" opacity="1.000000" stroke="none" 
	d="
M99.439301,44.738785 
	C98.695755,43.817116 97.367996,42.947552 97.328888,42.023449 
	C97.212204,39.266804 96.615677,35.635044 98.068466,33.958252 
	C99.532814,32.268112 103.808212,31.298389 105.785385,32.243744 
	C107.815498,33.214417 109.534332,36.850498 109.620628,39.380436 
	C109.737900,42.818439 106.923820,44.853748 103.252815,44.954491 
	C102.260834,44.981716 101.264786,44.861320 99.883949,44.778969 
	C99.497292,44.749260 99.444107,44.765968 99.439301,44.738785 
z"/>
<path fill="#FB196E" opacity="1.000000" stroke="none" 
	d="
M84.933632,98.959526 
	C88.963997,102.063538 93.198380,104.947182 96.916023,108.388985 
	C98.248848,109.622910 98.334839,112.203606 98.989059,114.565277 
	C93.970749,114.981277 88.953270,115.001617 83.354767,114.703339 
	C82.008469,113.538246 81.181694,112.738991 80.488930,111.836830 
	C77.966660,108.552200 75.489197,105.233177 73.399063,101.928589 
	C77.513397,100.939888 81.223518,99.949707 84.933632,98.959526 
z"/>
<path fill="#FB2262" opacity="1.000000" stroke="none" 
	d="
M72.994843,101.927116 
	C75.489197,105.233177 77.966660,108.552200 80.488930,111.836830 
	C81.181694,112.738991 82.008469,113.538246 82.888092,114.698654 
	C77.649979,115.011665 72.297531,115.010757 66.478958,115.007172 
	C63.592224,111.510223 61.041824,108.096825 58.796799,104.493172 
	C57.309792,102.106270 56.260471,99.446686 55.315002,96.476532 
	C55.814007,96.015213 56.013218,95.986557 56.212429,95.957901 
	C56.212429,95.957901 56.570663,95.966705 56.909233,96.208405 
	C57.531536,96.621529 57.815269,96.792946 58.098999,96.964363 
	C58.098999,96.964363 58.021202,96.962433 58.215111,97.222748 
	C63.270958,98.964424 68.132896,100.445770 72.994843,101.927116 
z"/>
<path fill="#FA1872" opacity="1.000000" stroke="none" 
	d="
M71.528320,23.116688 
	C73.138298,25.554026 74.576813,27.873287 75.338020,30.396851 
	C75.983246,32.535931 75.845589,34.911156 75.566238,37.575485 
	C71.080063,38.727047 67.082024,39.485004 63.083981,40.242966 
	C63.083981,40.242966 63.017307,40.188511 62.700500,40.097420 
	C57.810543,37.055088 55.235741,29.004887 56.991985,23.148958 
	C61.682392,23.128368 66.372795,23.107777 71.528320,23.116688 
z"/>
<path fill="#F51E6C" opacity="1.000000" stroke="none" 
	d="
M56.539772,23.120270 
	C55.235741,29.004887 57.810543,37.055088 62.743530,40.098526 
	C60.411652,41.599182 57.719944,43.007633 54.693985,44.515739 
	C51.912460,37.747231 49.465187,30.879066 47.022568,23.632065 
	C50.047337,23.199345 53.067451,23.145462 56.539772,23.120270 
z"/>
<path fill="#EF2A6E" opacity="1.000000" stroke="none" 
	d="
M85.156273,83.137054 
	C78.582474,89.710663 69.375664,90.756477 61.475075,85.827019 
	C54.049828,81.194153 50.677238,71.509712 53.552704,63.077808 
	C56.492699,54.456684 65.136642,49.031857 74.302765,50.139359 
	C75.771469,50.316814 77.196808,50.853134 78.828552,51.617172 
	C79.014908,52.010792 78.807892,52.265244 78.369247,52.205200 
	C70.794067,50.424187 65.692924,53.934925 60.702229,58.406555 
	C58.257999,60.596573 58.163689,62.065002 59.342461,65.117050 
	C61.547611,70.826569 62.735661,76.928925 64.346848,82.867844 
	C63.829842,83.364326 63.312832,83.860802 62.795826,84.357277 
	C65.573845,84.734322 68.379456,84.972641 71.123856,85.518669 
	C76.096642,86.508072 80.318901,84.210640 84.838669,82.800781 
	C84.945457,82.912003 85.156273,83.137054 85.156273,83.137054 
z"/>
<path fill="#EE2178" opacity="1.000000" stroke="none" 
	d="
M79.116226,51.881809 
	C89.997864,54.641712 96.541931,71.841919 85.467651,82.993118 
	C85.156273,83.137054 84.945457,82.912003 84.938766,82.470978 
	C87.877304,77.777878 88.106010,74.616959 82.659813,71.708969 
	C80.653725,70.637817 78.604759,64.911934 79.385124,64.136383 
	C83.972061,59.577747 83.295937,56.015583 78.807892,52.265244 
	C78.807892,52.265244 79.014908,52.010792 79.116226,51.881809 
z"/>
<path fill="#E23673" opacity="1.000000" stroke="none" 
	d="
M73.399063,101.928589 
	C68.132896,100.445770 63.270958,98.964424 58.216488,97.183868 
	C62.413883,97.658028 66.839783,99.204361 71.184296,99.002144 
	C76.212029,98.768105 81.168152,96.995583 86.533066,95.842941 
	C86.367683,96.676872 85.824593,97.558838 85.107559,98.700165 
	C81.223518,99.949707 77.513397,100.939888 73.399063,101.928589 
z"/>
<path fill="#F51E6C" opacity="1.000000" stroke="none" 
	d="
M63.510910,40.301670 
	C67.082024,39.485004 71.080063,38.727047 75.530777,37.955238 
	C79.179794,39.181362 82.376144,40.421333 85.618286,42.015862 
	C78.600876,39.766922 71.428246,38.346279 63.510910,40.301670 
z"/>
<path fill="#E23673" opacity="1.000000" stroke="none" 
	d="
M94.579315,88.966003 
	C93.810402,90.209488 92.742653,91.575432 91.303909,92.945068 
	C92.048775,91.661995 93.164627,90.375229 94.579315,88.966003 
z"/>
<path fill="#E23673" opacity="1.000000" stroke="none" 
	d="
M50.198006,90.423889 
	C49.206539,89.703812 48.135902,88.674690 47.075939,87.279572 
	C48.097355,87.980667 49.108089,89.047752 50.198006,90.423889 
z"/>
<path fill="#E23673" opacity="1.000000" stroke="none" 
	d="
M53.279282,93.174881 
	C52.381924,92.774078 51.341709,92.106041 50.282875,91.080566 
	C51.221642,91.451302 52.179035,92.179474 53.279282,93.174881 
z"/>
<path fill="#E23673" opacity="1.000000" stroke="none" 
	d="
M56.111431,95.651764 
	C56.013218,95.986557 55.814007,96.015213 55.315575,96.084381 
	C54.500591,95.470886 53.984833,94.816879 53.510902,93.834213 
	C54.371964,94.118904 55.191200,94.732269 56.111431,95.651764 
z"/>
<path fill="#E23673" opacity="1.000000" stroke="none" 
	d="
M89.571838,93.877281 
	C89.096725,94.500748 88.312126,95.189484 87.179848,95.863571 
	C87.642227,95.213455 88.452286,94.578003 89.571838,93.877281 
z"/>
<path fill="#F51E6C" opacity="1.000000" stroke="none" 
	d="
M85.844498,42.415352 
	C86.064194,42.324009 86.376526,42.542770 86.908493,42.949776 
	C86.731133,43.000496 86.334137,42.862980 85.844498,42.415352 
z"/>
<path fill="#E23673" opacity="1.000000" stroke="none" 
	d="
M47.074547,86.692055 
	C46.854534,86.728226 46.615318,86.476006 46.281235,85.977631 
	C46.476028,85.955536 46.765686,86.179604 47.074547,86.692055 
z"/>
<path fill="#E23673" opacity="1.000000" stroke="none" 
	d="
M90.712029,92.982574 
	C90.748993,93.180588 90.511993,93.437057 90.035263,93.806824 
	C90.009712,93.627098 90.223892,93.334068 90.712029,92.982574 
z"/>
<path fill="#E23673" opacity="1.000000" stroke="none" 
	d="
M58.009228,96.677505 
	C57.815269,96.792946 57.531536,96.621529 57.079803,96.263245 
	C57.247684,96.181137 57.583569,96.285889 58.009228,96.677505 
z"/>
<path fill="#FA196F" opacity="1.000000" stroke="none" 
	d="
M78.369247,52.205200 
	C83.295937,56.015583 83.972061,59.577747 79.385124,64.136383 
	C78.604759,64.911934 80.653725,70.637817 82.659813,71.708969 
	C88.106010,74.616959 87.877304,77.777878 84.831978,82.359756 
	C80.318901,84.210640 76.096642,86.508072 71.123856,85.518669 
	C68.379456,84.972641 65.573845,84.734322 62.795826,84.357277 
	C63.312832,83.860802 63.829842,83.364326 64.346848,82.867844 
	C62.735661,76.928925 61.547611,70.826569 59.342461,65.117050 
	C58.163689,62.065002 58.257999,60.596573 60.702229,58.406555 
	C65.692924,53.934925 70.794067,50.424187 78.369247,52.205200 
z"/>
</svg>