<svg version="1.1" id="Layer_1" xmlns="http://www.w3.org/2000/svg" xmlns:xlink="http://www.w3.org/1999/xlink" x="0px" y="0px"
	 width="100%" viewBox="0 0 103 92" enable-background="new 0 0 103 92" xml:space="preserve">
<path fill="#2CA9E1" opacity="1.000000" stroke="none" 
	d="
M67.000000,93.000000 
	C44.666672,93.000000 22.833342,93.000000 1.000009,93.000000 
	C1.000006,62.333344 1.000006,31.666685 1.000003,1.000021 
	C35.333317,1.000014 69.666634,1.000014 103.999969,1.000007 
	C103.999977,31.666647 103.999977,62.333294 103.999985,92.999969 
	C91.833336,93.000000 79.666664,93.000000 67.000000,93.000000 
M82.479996,78.115211 
	C86.019180,77.364143 83.438477,75.739296 82.778893,74.826988 
	C78.681114,69.159172 74.430489,63.602161 70.257568,57.988319 
	C66.126984,52.431416 62.028259,46.850819 57.885548,41.239964 
	C65.876053,32.520786 73.477173,24.226494 81.078300,15.932199 
	C80.496315,15.270065 79.914322,14.607932 79.332329,13.945800 
	C69.143784,19.089054 64.006889,30.409166 54.756245,37.181068 
	C49.866673,30.626963 45.222019,24.346687 40.502148,18.123463 
	C39.626163,16.968464 38.486431,15.201830 37.401527,15.151204 
	C31.242691,14.863806 25.063530,15.012032 17.953205,15.012032 
	C26.144676,25.981407 33.477859,36.069256 41.139050,45.901531 
	C43.513966,48.949474 43.234825,50.813904 40.619774,53.417336 
	C35.785240,58.230385 31.278967,63.374672 26.669193,68.411400 
	C23.967766,71.363022 21.330536,74.373398 18.664427,77.357353 
	C19.040840,77.862892 19.417253,78.368439 19.793667,78.873985 
	C21.913803,77.725464 24.468925,77.001961 26.078543,75.354614 
	C32.933044,68.339417 39.507721,61.050812 46.588696,53.426876 
	C49.599888,57.454010 52.922588,60.858482 55.017891,64.899384 
	C60.766289,75.985489 69.349350,80.640877 82.479996,78.115211 
z"/>
<path fill="#EBF7F5" opacity="1.000000" stroke="none" 
	d="
M82.076019,78.118668 
	C69.349350,80.640877 60.766289,75.985489 55.017891,64.899384 
	C52.922588,60.858482 49.599888,57.454010 46.588696,53.426876 
	C39.507721,61.050812 32.933044,68.339417 26.078543,75.354614 
	C24.468925,77.001961 21.913803,77.725464 19.793667,78.873985 
	C19.417253,78.368439 19.040840,77.862892 18.664427,77.357353 
	C21.330536,74.373398 23.967766,71.363022 26.669193,68.411400 
	C31.278967,63.374672 35.785240,58.230385 40.619774,53.417336 
	C43.234825,50.813904 43.513966,48.949474 41.139050,45.901531 
	C33.477859,36.069256 26.144676,25.981407 17.953205,15.012032 
	C25.063530,15.012032 31.242691,14.863806 37.401527,15.151204 
	C38.486431,15.201830 39.626163,16.968464 40.502148,18.123463 
	C45.222019,24.346687 49.866673,30.626963 54.756245,37.181068 
	C64.006889,30.409166 69.143784,19.089054 79.332329,13.945800 
	C79.914322,14.607932 80.496315,15.270065 81.078300,15.932199 
	C73.477173,24.226494 65.876053,32.520786 57.885548,41.239964 
	C62.028259,46.850819 66.126984,52.431416 70.257568,57.988319 
	C74.430489,63.602161 78.681114,69.159172 82.778893,74.826988 
	C83.438477,75.739296 86.019180,77.364143 82.076019,78.118668 
M61.931782,66.581322 
	C65.157372,71.476692 68.346748,76.445869 75.853065,73.118179 
	C75.006699,71.875954 74.236153,70.649414 73.372711,69.492188 
	C61.842133,54.038338 50.100151,38.736187 38.880756,23.059914 
	C35.572701,18.437738 32.006065,18.650860 26.832474,19.558575 
	C38.667278,35.430305 50.073227,50.726898 61.931782,66.581322 
z"/>
<path fill="#32ACDB" opacity="1.000000" stroke="none" 
	d="
M61.705482,66.302406 
	C50.073227,50.726898 38.667278,35.430305 26.832474,19.558575 
	C32.006065,18.650860 35.572701,18.437738 38.880756,23.059914 
	C50.100151,38.736187 61.842133,54.038338 73.372711,69.492188 
	C74.236153,70.649414 75.006699,71.875954 75.853065,73.118179 
	C68.346748,76.445869 65.157372,71.476692 61.705482,66.302406 
z"/>
</svg>